<?xml version="1.0" encoding="utf-8"?>
    <!-- Generator: Adobe Illustrator 15.1.0, SVG Export Plug-In . SVG Version: 6.00 Build 0)  -->
    <!DOCTYPE svg PUBLIC "-//W3C//DTD SVG 1.1//EN" "http://www.w3.org/Graphics/SVG/1.1/DTD/svg11.dtd">
<svg version="1.1" id="Layer_2" xmlns="http://www.w3.org/2000/svg" xmlns:xlink="http://www.w3.org/1999/xlink" x="0px" y="0px"
	 width="28px" height="28px" viewBox="0 0 28 28" enable-background="new 0 0 28 28" xml:space="preserve">
<path fill="#566B8D" d="M2.301,0h23.398c0.639,0,1.182,0.225,1.629,0.671C27.775,1.118,28,1.662,28,2.301v14.064
	c0,0.639-0.225,1.183-0.672,1.631c-0.447,0.447-0.99,0.67-1.629,0.67H2.301c-0.639,0-1.183-0.223-1.63-0.67
	C0.223,17.548,0,17.004,0,16.365V2.301c0-0.639,0.225-1.183,0.671-1.63C1.119,0.225,1.662,0,2.301,0z M26.498,1.503
	c-0.235-0.234-0.502-0.353-0.799-0.353v0.002H2.301V1.15c-0.298,0-0.564,0.119-0.799,0.353S1.15,2.004,1.15,2.302v14.064
	c0,0.299,0.117,0.563,0.352,0.799c0.232,0.233,0.5,0.353,0.799,0.353h23.398c0.299,0,0.566-0.119,0.799-0.353
	c0.234-0.235,0.352-0.5,0.352-0.799V2.302C26.85,2.004,26.732,1.737,26.498,1.503z M4.747,6.375v1.15h18.506v-1.15H4.747z
	 M4.747,4.042v1.149h18.506V4.042H4.747z M5.897,8.708v1.149h16.206V8.708H5.897z M9.99,12.861v2.29h8.02v-2.29H9.99z"/>
</svg>
